<?xml version="1.0" standalone="no"?>
<!DOCTYPE svg PUBLIC "-//W3C//DTD SVG 20010904//EN"
 "http://www.w3.org/TR/2001/REC-SVG-20010904/DTD/svg10.dtd">
<svg version="1.0" xmlns="http://www.w3.org/2000/svg"
 width="420.000000pt" height="420.000000pt" viewBox="0 0 420.000000 420.000000"
 preserveAspectRatio="xMidYMid meet">
<metadata>
Created by potrace 1.14, written by Peter Selinger 2001-2017
</metadata>
<g transform="translate(0.000000,420.000000) scale(0.100000,-0.100000)"
fill="#000000" stroke="none">
<path d="M1105 4071 c-190 -49 -336 -137 -463 -277 -111 -123 -196 -298 -221
-454 -16 -95 -15 -1924 0 -1914 7 4 67 8 134 9 l122 2 64 55 c36 30 90 70 122
89 l56 34 1 519 c0 570 7 1082 16 1135 17 104 132 238 241 283 l58 23 953 3
c523 1 952 1 952 -1 0 -7 -120 -262 -157 -332 -124 -240 -289 -423 -458 -509
l-70 -35 170 -1 c212 0 364 13 525 46 606 122 950 492 1029 1104 12 97 18 160
15 160 -2 0 -40 -53 -85 -117 -130 -188 -205 -279 -339 -417 -194 -199 -339
-316 -565 -458 -116 -73 -383 -213 -391 -205 -2 2 47 32 109 67 153 86 339
209 477 316 200 154 475 442 622 651 38 52 138 225 138 237 0 3 -672 6 -1492
5 -1404 0 -1497 -2 -1563 -18z"/>
<path d="M4151 3300 c-23 -47 -64 -114 -89 -150 -69 -98 -206 -234 -304 -301
l-88 -60 -2 -832 -3 -832 -31 -65 c-60 -125 -167 -202 -304 -219 -79 -10
-1586 -15 -1601 -5 -5 3 -1 17 10 32 33 47 100 189 127 268 31 92 50 190 60
302 l7 82 -81 0 c-464 0 -982 -404 -986 -771 l-1 -76 -63 68 c-168 182 -433
317 -659 336 l-72 6 -7 -28 c-9 -38 11 -186 37 -272 25 -83 96 -220 151 -291
145 -188 354 -296 506 -262 54 12 192 76 192 89 0 3 -33 18 -73 33 -146 55
-258 152 -354 306 -49 78 -53 107 -8 47 68 -88 258 -216 388 -260 108 -36 109
-36 130 38 10 34 37 100 59 147 33 69 57 100 127 170 75 74 201 168 281 210
14 7 -14 -28 -62 -78 -87 -90 -170 -207 -222 -309 -27 -54 -69 -188 -81 -260
l-7 -43 1154 0 c1084 0 1157 1 1223 19 335 87 577 334 672 685 15 55 17 167
20 1056 2 547 2 1065 1 1150 l-3 155 -44 -85z m-2606 -2610 c11 -17 -15 -40
-46 -40 -35 0 -48 19 -24 37 22 16 61 17 70 3z m522 -6 c7 -20 -13 -34 -49
-34 -32 0 -38 23 -10 39 26 15 52 13 59 -5z m133 -40 c0 -40 3 -55 13 -51 6 2
12 10 12 18 0 9 14 15 43 17 32 2 42 0 42 -12 0 -8 -9 -18 -20 -21 -28 -9 -25
-18 15 -61 19 -20 35 -41 35 -45 0 -5 -19 -9 -42 -9 -32 0 -49 6 -70 26 l-27
27 2 -29 c2 -28 0 -29 -43 -29 -40 0 -45 2 -41 20 2 11 6 49 8 84 4 54 2 67
-13 78 -16 11 -14 14 17 27 62 27 69 23 69 -40z m-760 -29 c19 -23 -1 -40 -28
-24 -12 7 -25 9 -29 5 -4 -5 -3 -11 4 -13 27 -10 63 -46 63 -63 0 -28 -41 -51
-82 -47 -44 4 -58 14 -58 38 0 20 15 26 25 9 7 -12 35 -13 35 -2 0 5 -11 15
-25 22 -30 16 -40 42 -25 70 8 16 21 20 59 20 32 0 53 -5 61 -15z m110 -43 c0
-33 5 -63 12 -70 17 -17 -6 -32 -47 -32 -41 0 -64 15 -47 32 14 14 16 84 2 93
-26 16 -3 32 53 34 26 1 27 0 27 -57z m203 46 c4 -10 7 -10 18 0 7 6 27 12 45
12 18 0 34 -6 37 -12 4 -10 7 -10 18 0 14 13 75 17 82 5 3 -5 6 -39 8 -78 4
-75 -3 -84 -55 -71 -19 5 -22 12 -21 53 0 26 -4 49 -10 50 -6 2 -10 -18 -10
-45 0 -53 -7 -62 -52 -62 -39 0 -46 10 -33 45 12 31 3 78 -14 72 -6 -2 -11
-26 -11 -56 1 -46 -2 -52 -22 -57 -13 -4 -34 -3 -48 0 -22 6 -24 9 -14 28 7
12 9 41 6 69 -5 39 -3 49 11 52 34 9 60 7 65 -5z m319 -40 c-2 -26 2 -57 8
-69 15 -27 0 -39 -46 -39 -34 0 -63 23 -44 35 14 8 13 82 -2 91 -18 12 23 35
57 32 29 -3 29 -4 27 -50z m418 32 c11 -11 20 -29 20 -40 0 -17 -7 -20 -44
-20 -50 0 -64 -11 -40 -31 12 -10 22 -10 45 -2 23 9 29 9 29 -2 0 -8 -10 -21
-22 -29 -54 -38 -128 -2 -128 62 0 50 32 82 82 82 25 0 45 -7 58 -20z"/>
<path d="M2414 599 c-10 -17 13 -36 27 -22 12 12 4 33 -11 33 -5 0 -12 -5 -16
-11z"/>
</g>
</svg>
